<?xml version="1.0" encoding="utf-8"?>
<!-- Generator: Adobe Illustrator 22.0.1, SVG Export Plug-In . SVG Version: 6.00 Build 0)  -->
<svg version="1.1" id="Layer_1" xmlns="http://www.w3.org/2000/svg" xmlns:xlink="http://www.w3.org/1999/xlink" x="0px" y="0px"
	 viewBox="0 0 800 1600" style="enable-background:new 0 0 800 1600;" xml:space="preserve">
<style type="text/css">
	.st0{fill-rule:evenodd;clip-rule:evenodd;}
</style>
<g>
	<path class="st0" d="M571.9,969.9c0,132.3,0,264.7-0.1,397c0,2-0.8,4.1-1.3,6.1c-0.2,0.7-0.5,1.4-0.6,2.1
		c-0.5,6.7-0.7,13.5-1.5,20.1c-0.6,5-1.9,9.8-3,14.7c-0.7,3.2-1.3,6.4-2,9.5c-2.7,10.9-5.1,22-8.3,32.8c-3.3,11-7.1,21.9-11.3,32.5
		c-4.5,11.3-9.8,22.2-14.8,33.3c-1.1,2.6-3.2,3.1-5.7,3.1c-11.9,0-23.7-0.1-35.6-0.1c-16.7,0-33.5,0-50.2,0c-0.9,0-1.9,0-2.8-0.2
		c-1.9-0.4-2.5-1.5-1.6-3.2c2.9-5.6,6-11.2,8.7-16.9c2.9-6.3,5.5-12.8,7.9-19.3c3.5-9.8,6.8-19.6,9.9-29.5c1.9-6,3.1-12.3,4.6-18.4
		c1-4,2-7.9,2.9-11.9c0.5-2.4,0.9-4.9,1.3-7.4c0.8-5,1.1-10.2,2.5-15.1c1.7-6.3,0.1-13.1,2.9-19.2c0.6-1.3,0.3-2.9,0.3-4.4
		c0-6-0.6-12.1,0-18.1c3.7-32.7,1-65.5,1.5-98.3c0.5-32.8,0.1-65.7,0.1-98.5c0-32.8,0-65.7,0-98.5c0-33,0-65.9,0-98.9
		c0-32.8,0-65.7,0-98.5c0-32.8,0-65.7,0-98.5c0-32.8,0-65.7,0-98.5c0-1.6,0.1-3.2,0.1-4.8c-0.2-4.3-1.8-5.9-6.1-5.9
		c-15.8,0-31.6,0-47.4,0c-24.6,0-49.2,0-73.7,0c-3.6,0-4.4,0.8-4.4,4.5c0,167.2,0,334.4,0,501.6c0,3.3,0,6.6,0,9.9
		c0,4.8-0.3,5.1-5,5.1c-8.8,0-17.6,0-26.4,0c-20.7,0-41.3,0-62,0c-4.2,0-4.6-0.4-4.6-4.8c0-166,0-332.1,0-498.1c0-4.6,0-9.1,0-13.7
		c0-3.6-0.8-4.5-4.5-4.4c-21.2,0.1-42.4,0.1-63.6,0.2c-2.8,0-4-1.2-4-4c0.1-24.9,0.1-49.8,0.2-74.7c0-2.2-0.1-4.4-0.1-6.7
		c-0.1-3.2,0.9-4.2,4.1-4.2c20.1,0,40.3,0.1,60.4,0.1c6.4,0,7.6-1.2,7.6-7.6c0-80.8,0-161.7,0-242.5c0-7-0.1-14,0-21
		c0-2.2,0.8-4.3,1.2-6.5c0.2-1.2,0.5-2.5,0.5-3.7c0-5.6-0.5-11.3,0-16.8c0.7-7.5,2.1-14.9,3.2-22.3c0.1-0.7,0.2-1.5,0.3-2.2
		c0.5-5.5,0.5-11.2,1.5-16.6c1.2-6.9,3.1-13.6,4.7-20.5c0.6-2.8,0.9-5.6,1.6-8.3c1.2-4.7,2.6-9.3,4.1-13.9
		c2.2-6.8,3.9-13.9,6.9-20.3c4.3-9.4,9.6-18.3,14.5-27.4c5.9-10.8,14.9-19,23.8-27c6.1-5.4,13.4-9.6,20.5-13.6
		c5.5-3.1,11.6-5,17.5-7.4c2.9-1.2,5.9-2.4,8.8-3.4c3.1-1,6.2-2.1,9.4-2.7c4.9-0.9,9.9-1.3,14.9-2.2c17.6-3.2,35.3-0.8,52.9-1.4
		c2.8-0.1,5.6,0.8,8.4,1.1c1.4,0.2,2.7,0.1,4.1,0.3c2.3,0.3,4.5,0.7,6.8,1.1c2.5,0.4,5,0.8,7.4,1.3c3.9,0.9,7.8,2,11.7,2.8
		c2.2,0.4,3.5,1.5,3.6,3.7c0.1,2.1,0.1,4.2,0.1,6.4c0,24.7,0,49.4,0,74.1c0,4.9-0.9,5.1-5.4,3.6c-6.2-2.1-12.8-3.2-19.1-5.1
		c-13.2-3.8-26.7-1.3-40-1.6c-5.8-0.1-11.9,1.7-17.5,3.6c-5.7,2-11.1,4.8-16.3,8.3c-7.5,5.2-12.9,12-16.3,20.1
		c-3.1,7.5-5.3,15.3-7.7,23.1c-1.2,4-2.1,8.1-3,12.2c-0.3,1.1-0.1,2.3-0.3,3.5c-0.3,2.2-0.7,4.3-0.9,6.5c-0.3,3.1-0.3,6.3-0.7,9.4
		c-0.2,2-0.7,3.9-1.1,5.8c-0.2,1.1-0.7,2.2-0.7,3.4c-0.5,10.7-1.2,21.5-1.4,32.2c-0.2,10.8-0.1,21.6-0.1,32.4c0,78,0,156,0,234
		c0,4.8,0.5,5.2,5.3,5.2c62.1,0,124.2,0,186.3,0c9.9,0,19.7,0,29.6,0c6.7,0,6.7-0.1,6.7,6.6c0,51.5,0,103,0,154.5
		C571.8,809,571.8,889.4,571.9,969.9C571.8,969.9,571.8,969.9,571.9,969.9z"/>
	<path class="st0" d="M591.5,365.4c1.5,13.6-3.8,25.5-10.6,36.5c-3.9,6.3-8.5,12.6-15.5,16.4c-4.5,2.5-8.4,6-12.8,8.6
		c-5.1,3.1-10.7,4.7-16.6,5.8c-4.9,0.9-9.7,1.1-14.6,1.6c-7.5,0.7-14.2-1.7-20.8-4.5c-6.5-2.7-12.5-6.2-18.1-10.8
		c-12.3-10-20.7-22.5-24.7-37.6c-2.3-8.7-4.1-17.9-0.9-27.1c1.6-4.4,2-9.3,3.7-13.6c2.2-5.2,4.9-10.3,8-15c2.6-4,5.8-7.8,9.4-11.1
		c9.3-8.5,19.7-15.3,32.2-18.1c2.3-0.5,4.9,0,7.3-0.4c7.8-1.4,15.5-0.3,22.9,1.6c7.4,1.9,14.6,5,20.6,10.1c3.5,2.9,7.2,5.6,10.4,8.7
		c8.9,8.7,14.9,19.2,18.4,31c1.7,5.7,1.8,11.8,2.6,17.8C592.1,365.3,591.8,365.4,591.5,365.4z"/>
</g>
</svg>
