<?xml version="1.0" encoding="utf-8"?>
<!-- Generator: Adobe Illustrator 22.0.1, SVG Export Plug-In . SVG Version: 6.00 Build 0)  -->
<svg version="1.1" id="Layer_1" xmlns="http://www.w3.org/2000/svg" xmlns:xlink="http://www.w3.org/1999/xlink" x="0px" y="0px"
	 viewBox="0 0 800 1600" style="enable-background:new 0 0 800 1600;" xml:space="preserve">
<style type="text/css">
	.st0{fill-rule:evenodd;clip-rule:evenodd;}
</style>
<g>
	<path class="st0" d="M491.6,54.7c3.7,0.8,3.9,3.4,3.9,5.4c0,2,0,77.8,0,82.6c0,3.9-0.6,5.2-3.1,4.5c-2.5-0.7-25.8-9.5-55.4-7.8
		c-52.1,3-77.8,26.8-77.8,143.8c0,147.1,0,267.6,0,270.3c0,3.1,1.1,3.7,4.3,3.7c6.3,0,226.9,0,229.4,0c3.8,0,4.4,0.8,4.4,4.6
		s0,727,0,793c0,96.9-27,154.8-44.7,195.7c-1.4,2.8-3,3.2-6,3.2s-86.7,0-89.7,0s-6.6,0.1-3.8-5.2s43.7-70.8,43.7-205.6
		c0-152.1,0-680.6,0-684.9c0-5.9-1.5-7.6-6.7-7.6c-8.1,0-121.3,0-126,0c-4.2,0-4.9,0.8-4.9,5.5c0,6.2,0,531.1,0,535.3
		c0,3.1-0.7,3.8-3.4,3.8c-4.2,0-90.8,0-94.7,0c-3.2,0-4.1-0.6-4.1-3.8c0-5.5,0-532.1,0-536c0-3.9-0.8-4.7-4.6-4.7
		c-4.3,0-62.6,0-66,0c-3.6,0-4.7-0.6-4.7-4.4c0-2.9,0-81.1,0-84.6c0-3.6,0.8-4.4,5.3-4.4s60.4,0,64,0c4.3,0,6.3-1.7,6.3-6.3
		c0-7.1,0-182.7,0-271.2C257.1,138,304.7,12.4,491.6,54.7z"/>
	<circle class="st0" cx="546.5" cy="346" r="72"/>
</g>
</svg>
